<svg height="512" viewBox="0 0 64 64" width="512" xmlns="http://www.w3.org/2000/svg"><g id="Layer_45" data-name="Layer 45"><path d="m61.62109 57.37891-11.86248-11.86249a7.81365 7.81365 0 0 0 -.37091-3.93634l-10.10547-27.42578a7.76056 7.76056 0 0 0 -14.56446 0l-1.70208 4.6192-16.3946-16.39459a3.07383 3.07383 0 0 0 -4.2417-.001 2.99949 2.99949 0 0 0 -.00048 4.24316l18.35247 18.3525-6.11908 16.60748a7.86235 7.86235 0 0 0 .93409 7.20606 7.75023 7.75023 0 0 0 6.43361 3.35742h3.63721a9.05481 9.05481 0 0 0 6.38279 2.44336 9.05481 9.05481 0 0 0 6.38281-2.44336h3.63719a7.82784 7.82784 0 0 0 4.4765-1.40582l10.88241 10.88238a2.99949 2.99949 0 0 0 4.2417.001l.00048-.001h.00049a2.99948 2.99948 0 0 0 -.00049-4.24218zm-35.02636-42.53321a5.76017 5.76017 0 0 1 10.81054 0l10.10547 27.42481a5.90609 5.90609 0 0 1 .30353 1.30157l-23.24084-23.24084zm15.42527 35.29883h-2.16655a2.565 2.565 0 0 1 1.94782-.93848h.2251a1 1 0 0 0 0-2h-.2251a4.70714 4.70714 0 0 0 -4.10547 2.55469c-.90723 1.69141-3.19629 2.82715-5.6958 2.82715s-4.78857-1.13574-5.69629-2.82715a4.70582 4.70582 0 0 0 -4.105-2.55469h-.2251a1 1 0 1 0 0 2h.2251a2.56524 2.56524 0 0 1 1.94794.93848h-2.16665a5.85592 5.85592 0 0 1 -5.49072-7.87305l5.79986-15.74017 22.76414 22.76416a5.75181 5.75181 0 0 1 -3.03328.84906zm18.1875 10.06152-.001.001a1.02292 1.02292 0 0 1 -1.41357 0l-55-55a.99989.99989 0 1 1 1.41407-1.41405l55 55a.999.999 0 0 1 .00049 1.41308z"/></g></svg>