<svg id="svg53" clip-rule="evenodd" fill-rule="evenodd" height="512" stroke-linejoin="round" stroke-miterlimit="2" viewBox="0 0 64 64" width="512" xmlns="http://www.w3.org/2000/svg" xmlns:svg="http://www.w3.org/2000/svg"><path id="path4" d="m32.00028 15.002128c-9.383123 0-16.999132 7.616009-16.999132 16.999132s7.616009 17.00091 16.999132 17.00091 16.999132-7.617787 16.999132-17.00091-7.616009-16.999132-16.999132-16.999132zm0 2.000002c8.279121 0 14.99913 6.720009 14.99913 14.99913s-6.720009 15.000908-14.99913 15.000908-14.99913-6.721787-14.99913-15.000908 6.720009-14.99913 14.99913-14.99913z" stroke-width="1.778"/><path id="path8" d="m23.4502 15.029868c2.571108-1.299999 5.47555-2.031109 8.54888-2.031109 10.486656 0 18.999981 8.513325 18.999981 18.999981 0 3.07333-.73111 5.977772-2.031109 8.54888-.248889.493333-.05111 1.095555.442222 1.344443.493333.248889 1.095554.05111 1.344443-.442221 1.435554-2.84222 2.244442-6.053328 2.244442-9.451102 0-11.5911-9.408879-20.999979-20.999979-20.999979-3.397774 0-6.608882.808888-9.451102 2.244442-.493332.248889-.69111.85111-.442221 1.344443.248888.493333.85111.691111 1.344443.442222z" stroke-width="2.222"/><path id="path12" d="m40.54796 48.967612c-2.571108 1.299999-5.47555 2.031109-8.54888 2.031109-10.486656 0-18.999981-8.513325-18.999981-18.999981 0-2.337775.422222-4.579995 1.197777-6.648882.193333-.517777-.06889-1.093332-.586667-1.286666-.515555-.193333-1.093332.06889-1.286665.584444-.855555 2.288887-1.324443 4.766662-1.324443 7.351104 0 11.5911 9.408879 20.999979 20.999979 20.999979 3.397774 0 6.608882-.808888 9.451102-2.244442.493332-.248889.69111-.85111.442221-1.344443-.248888-.493333-.85111-.691111-1.344443-.442222z" stroke-width="2.222"/><path id="path16" d="m48.99968 47.759544v-1.759624c0-.551597.448-.999341 1-.999341h4c.552 0 1 .447744 1 .999341v1.759624l1.496-.872954c.231-.134225.505-.171455.763-.101893.257.06858.477.238078.609.469298l2 3.499653c.273.477136.11 1.083599-.364 1.359887l-1.519.88667 1.519.886671c.474.276288.637.882751.364 1.359887l-2 3.499653c-.132.23122-.352.400716-.609.469298-.258.06956-.532.03233-.763-.101893l-1.496-.872954v1.759624c0 .551597-.448.999341-1 .999341h-4c-.552 0-1-.447744-1-.999341v-1.759624l-1.496.872954c-.231.134225-.505.171455-.763.101893-.257-.06858-.477-.238078-.609-.469298l-2-3.499653c-.273-.477136-.11-1.083599.364-1.359887l1.519-.886671-1.519-.88667c-.474-.276288-.637-.882751-.364-1.359887l2-3.499653c.132-.23122.352-.400716.609-.469298.258-.06956.532-.03233.763.101893zm4-.759303h-2v2.500312c0 .357607-.191.688761-.502.867075-.31.178314-.693.176354-1.002-.0039l-2.128-1.241338-1.008 1.763543 2.144 1.250156c.307.179293.496.508488.496.864135 0 .355648-.189.684843-.496.864136l-2.144 1.250156 1.008 1.763543 2.128-1.241338c.309-.180273.692-.182233 1.002-.0039.311.178314.502.509468.502.867075v2.500312h2v-2.500312c0-.357607.191-.688761.502-.867075.31-.178314.693-.176354 1.002.0039l2.128 1.241338 1.008-1.763543-2.144-1.250156c-.307-.179293-.496-.508488-.496-.864136 0-.355647.189-.684842.496-.864135l2.144-1.250156-1.008-1.763543-2.128 1.241338c-.309.180273-.692.182233-1.002.0039-.311-.178314-.502-.509468-.502-.867075z" stroke-width=".99"/><path id="path20" d="m28.86068 29.521c.126-.512.058-1.062-.204-1.537l-.942-1.704c-.403-.727-.613-1.544-.613-2.376 0-2.707 2.195-4.904 4.898-4.904s4.898 2.197 4.898 4.904c0 .832-.21 1.649-.613 2.376 0 0-.942 1.704-.942 1.704-.262.475-.33 1.025-.204 1.537.243.308.442.651.587 1.022.38.367.89.584 1.432.594 0 0 1.945.035 1.945.035.831.015 1.644.241 2.363.656 2.34 1.354 3.144 4.355 1.793 6.699-1.352 2.345-4.351 3.149-6.693 1.795-.719-.415-1.32-1.007-1.748-1.72 0 0-1.003-1.669-1.003-1.669-.292-.488-.764-.831-1.302-.966-.168.022-.339.033-.513.033s-.345-.011-.513-.033c-.538.135-1.01.478-1.302.966 0 0-1.003 1.669-1.003 1.669-.428.713-1.029 1.305-1.748 1.72-2.342 1.354-5.341.55-6.693-1.795-1.351-2.344-.547-5.345 1.793-6.699.719-.415 1.532-.641 2.363-.656 0 0 1.945-.035 1.945-.035.542-.01 1.052-.227 1.432-.594.145-.371.344-.714.587-1.022zm7.031 3.404c-.185.783-.601 1.477-1.172 2.006.314.277.588.603.81.972 0 0 1.003 1.67 1.003 1.67.253.422.609.772 1.034 1.018 1.386.801 3.159.324 3.959-1.063.8-1.388.325-3.167-1.061-3.968-.425-.246-.906-.38-1.397-.389 0 0-1.945-.034-1.945-.034-.425-.008-.839-.081-1.231-.212zm-7.784 0c-.392.131-.806.204-1.231.212 0 0-1.945.034-1.945.034-.491.009-.972.143-1.397.389-1.386.801-1.861 2.58-1.061 3.968.8 1.387 2.573 1.864 3.959 1.063.425-.246.781-.596 1.034-1.018 0 0 1.003-1.67 1.003-1.67.222-.369.496-.695.81-.972-.571-.529-.987-1.223-1.172-2.006zm3.892-2.925c1.104 0 2 .896 2 2s-.896 2-2 2-2-.896-2-2 .896-2 2-2zm1.164-1.828c.083-.399.226-.789.429-1.155 0 0 .942-1.705.942-1.705.238-.431.363-.915.363-1.408 0-1.602-1.298-2.904-2.898-2.904s-2.898 1.302-2.898 2.904c0 .493.125.977.363 1.408 0 0 .942 1.705.942 1.705.203.366.346.756.429 1.155.368-.112.759-.172 1.164-.172s.796.06 1.164.172z"/><path id="circle22" d="m36.99968 56a1 1 0 0 1 -1 1 1 1 0 0 1 -1-1 1 1 0 0 1 1-1 1 1 0 0 1 1 1z" stroke-width=".2"/><path id="circle26" d="m-26.99968 8a1 1 0 0 1 -1 1 1 1 0 0 1 -1-1 1 1 0 0 1 1-1 1 1 0 0 1 1 1z" stroke-width=".2" transform="scale(-1 1)"/><path id="path30" d="m27.99924 56.999h4.00002c.551848 0 .999974-.448.999974-1s-.448126-1-.999974-1h-4.00002c-.551973 0-.999974.448-.999974 1s.448001 1 .999974 1z" stroke-width=".354"/><path id="path34" d="m36.00012 6.9988h-4.00002c-.551848 0-.999974.448-.999974 1s.448126 1 .999974 1h4.00002c.551973 0 .999974-.448.999974-1s-.448001-1-.999974-1z" stroke-width=".354"/><path id="path38" d="m11.78868 3.385c-.19-.243-.481-.385-.789-.385s-.599.142-.789.385c0 0-3.001 3.855-4.802 7.323-.845 1.625-1.409 3.186-1.409 4.292 0 3.863 3.137 7 7 7s7-3.137 7-7c0-1.106-.564-2.667-1.409-4.292-1.801-3.468-4.802-7.323-4.802-7.323zm-.789 11.206c-.464.599-1.049 1.403-1.484 2.164-.274.48-.516.919-.516 1.245 0 1.104.896 2 2 2s2-.896 2-2c0-.326-.242-.765-.516-1.245-.435-.761-1.02-1.565-1.484-2.164zm4 3.408c.628-.836 1-1.874 1-2.999 0-.874-.516-2.085-1.183-3.37-1.16-2.232-2.839-4.63-3.817-5.964-.978 1.334-2.657 3.732-3.817 5.964-.667 1.285-1.183 2.496-1.183 3.37 0 1.125.372 2.163 1 2.999 0-.574.298-1.394.78-2.237.923-1.616 2.461-3.413 2.461-3.413.19-.221.467-.349.759-.349s.569.128.759.349c0 0 1.538 1.797 2.461 3.413.482.843.78 1.663.78 2.237z"/><g stroke-width=".2"><path id="circle40" d="m5.99968 5a1 1 0 0 1 -1 1 1 1 0 0 1 -1-1 1 1 0 0 1 1-1 1 1 0 0 1 1 1z"/><path id="circle44" d="m17.99968 5a1 1 0 0 1 -1 1 1 1 0 0 1 -1-1 1 1 0 0 1 1-1 1 1 0 0 1 1 1z"/></g></svg>