<svg id="Layer_1" enable-background="new 0 0 74 74" height="512" viewBox="0 0 74 74" width="512" xmlns="http://www.w3.org/2000/svg"><path d="m58.08 19.15c.41 0 .75-.34.75-.75v-2.67c0-2.71-2.21-4.92-4.92-4.92h-6.81v-2.97c0-1.56-1.27-2.84-2.84-2.84h-14.52c-1.56 0-2.84 1.27-2.84 2.84v2.97h-6.8c-2.71 0-4.92 2.21-4.92 4.92v2.67c0 .41.34.75.75.75h2.32v35.7h-2.32c-.41 0-.75.34-.75.75v2.67c0 2.71 2.21 4.92 4.92 4.92h6.81v2.97c0 1.56 1.27 2.84 2.84 2.84h14.52c1.56 0 2.84-1.27 2.84-2.84v-2.96h6.81c2.71 0 4.92-2.21 4.92-4.92v-2.68c0-.41-.34-.75-.75-.75h-2.32v-35.7zm-8.97 35.7h-3.64v-35.7h3.64zm1.5-35.7h3.64v35.7h-3.64zm-25.72 0h3.64v35.7h-3.64zm-1.5 35.7h-3.65v-35.7h3.65zm15.43-35.7v35.7h-3.64v-35.7zm-5.14 0v35.7h-3.64v-35.7zm6.64 35.7v-35.7h3.64v35.7zm-11.91-47.01c0-.74.6-1.34 1.34-1.34h14.52c.74 0 1.34.6 1.34 1.34v2.97h-17.2zm-11.74 7.88c0-1.89 1.53-3.42 3.42-3.42h33.81c1.89 0 3.42 1.53 3.42 3.42v1.92h-40.65zm28.92 50.44c0 .74-.6 1.34-1.34 1.34h-14.51c-.74 0-1.34-.6-1.34-1.34v-2.96h17.19zm11.74-7.88c0 1.89-1.53 3.42-3.42 3.42h-33.81c-1.89 0-3.42-1.53-3.42-3.42v-1.92h40.65z"/></svg>