<svg id="Capa_1" height="80" viewBox="0 0 512 512" width="80" xmlns="http://www.w3.org/2000/svg"><g><g><path d="m335.443 279.026h17.655v176.549h-17.655z"/><path d="m264.823 279.026h17.655v176.549h-17.655z"/><path d="m370.752 279.026h17.655v176.549h-17.655z"/><path d="m300.133 279.026h17.655v176.549h-17.655z"/><path d="m406.062 279.026h17.655v176.549h-17.655z"/><path d="m229.513 279.026h17.655v176.549h-17.655z"/><path d="m211.858 243.717h300.142v17.655h-300.142z"/><path d="m441.372 279.026h17.655v176.549h-17.655z"/><path d="m211.858 486.939c-11.537 2.613-23.366 3.937-35.31 3.937-87.612 0-158.894-71.282-158.894-158.894 0-36.369 10.522-71.688 30.428-102.125l128.467-196.472 96.29 147.268c4.776-4.661 11.281-7.556 18.467-7.556h.159l-114.916-169.637-138.459 204.391c-24.919 36.784-38.09 79.711-38.09 124.14 0 97.349 79.2 176.549 176.549 176.549 12.853 0 25.6-1.395 38.029-4.122-1.739-4.175-2.719-8.739-2.719-13.532v-3.947z"/><path d="m229.513 490.885c0 9.737 7.918 17.655 17.655 17.655h229.513c9.737 0 17.655-7.918 17.655-17.655v-17.655h-264.823z"/><path d="m476.681 279.026h17.655v176.549h-17.655z"/><path d="m211.858 226.062h52.965v-25.405l-88.274-135.016-113.689 173.883c-18.026 27.559-27.55 59.532-27.55 92.467 0 77.876 63.363 141.239 141.239 141.239 11.988 0 23.816-1.589 35.31-4.546v-189.658c-9.737 0-17.655-7.918-17.655-17.655v-17.655c0-9.736 7.918-17.654 17.654-17.654zm-132.411 52.964c0-24.373 19.765-44.137 44.137-44.137s44.137 19.765 44.137 44.137-19.765 44.137-44.137 44.137-44.137-19.764-44.137-44.137zm79.447 132.412c-14.627 0-26.482-11.855-26.482-26.482s11.855-26.482 26.482-26.482 26.482 11.855 26.482 26.482-11.855 26.482-26.482 26.482zm17.655-203.031c-14.627 0-26.482-11.855-26.482-26.482s11.855-26.482 26.482-26.482 26.482 11.855 26.482 26.482-11.855 26.482-26.482 26.482z"/><path d="m282.478 199.579v26.482h158.894v-26.482c0-4.864-3.964-8.827-8.827-8.827h-141.24c-4.864 0-8.827 3.964-8.827 8.827z"/></g></g></svg>