<svg clip-rule="evenodd" fill-rule="evenodd" height="512" stroke-linejoin="round" stroke-miterlimit="2" viewBox="0 0 64 64" width="512" xmlns="http://www.w3.org/2000/svg"><g><path d="m288.5 320c-20.55 0-37.066-10.066-37.759-10.495-.091-.055-12.526-7.505-27.241-7.505s-27.15 7.45-27.274 7.525c-4.707 2.86-10.857 1.386-13.735-3.31s-1.435-10.824 3.25-13.721c.693-.428 17.209-10.494 37.759-10.494s37.066 10.066 37.759 10.495c.091.055 12.526 7.505 27.241 7.505s27.15-7.45 27.274-7.525c4.706-2.86 10.857-1.385 13.735 3.31 2.878 4.696 1.435 10.824-3.25 13.721-.693.428-17.209 10.494-37.759 10.494z"/><path d="m288.5 275c-20.55 0-37.066-10.066-37.759-10.495-.091-.055-12.526-7.505-27.241-7.505s-27.15 7.45-27.274 7.525c-4.707 2.86-10.857 1.385-13.735-3.31-2.878-4.696-1.435-10.824 3.25-13.721.693-.428 17.209-10.494 37.759-10.494s37.066 10.066 37.759 10.495c.091.055 12.526 7.505 27.241 7.505s27.15-7.45 27.274-7.525c4.706-2.86 10.857-1.386 13.735 3.31s1.435 10.824-3.25 13.721c-.693.428-17.209 10.494-37.759 10.494z"/><path d="m288.5 230c-20.55 0-37.066-10.066-37.759-10.495-.091-.055-12.526-7.505-27.241-7.505s-27.15 7.45-27.274 7.525c-4.707 2.861-10.857 1.385-13.735-3.31-2.878-4.696-1.435-10.824 3.25-13.721.693-.428 17.209-10.494 37.759-10.494s37.066 10.066 37.759 10.495c.091.055 12.526 7.505 27.241 7.505s27.15-7.45 27.274-7.525c4.706-2.861 10.857-1.385 13.735 3.31 2.878 4.696 1.435 10.824-3.25 13.721-.693.428-17.209 10.494-37.759 10.494z"/><path d="m256 512c-1.685 0-3.37-.425-4.892-1.278-3.155-1.77-5.108-5.105-5.108-8.722v-20.213c-32.438-1.387-63.493-9.541-92.446-24.292-30.432-15.504-57.42-38.147-78.046-65.481-1.598-2.118-2.289-4.784-1.921-7.412.369-2.628 1.766-5.001 3.885-6.598l39.93-30.09c4.408-3.322 10.676-2.444 14.001 1.964 27.763 36.8 69.105 58.971 114.597 61.812v-19.69c0-3.617 1.954-6.953 5.108-8.722 3.155-1.77 7.021-1.697 10.106.189l90 55c2.973 1.816 4.786 5.049 4.786 8.533s-1.813 6.716-4.786 8.533l-90 55c-1.598.977-3.405 1.467-5.214 1.467zm-158.313-124.187c39.291 47.278 96.437 74.187 158.313 74.187 5.523 0 10 4.477 10 10v12.169l60.823-37.169-60.823-37.17v12.17c0 5.523-4.477 10-10 10-28.083 0-54.926-6.42-79.784-19.083-20.74-10.565-39.425-25.388-54.53-43.188z"/><path d="m65 356c-3.484 0-6.716-1.813-8.533-4.786l-55-90c-1.886-3.086-1.958-6.951-.189-10.106 1.769-3.154 5.105-5.108 8.722-5.108h20.213c1.387-32.435 9.539-63.486 24.287-92.438 15.501-30.433 38.143-57.423 65.476-78.054 2.117-1.599 4.783-2.292 7.412-1.922 2.627.368 5.001 1.765 6.598 3.884l30.1 39.93c3.324 4.409 2.445 10.677-1.963 14.002-36.8 27.763-58.971 69.105-61.812 114.597h19.689c3.617 0 6.953 1.954 8.722 5.108 1.769 3.155 1.697 7.02-.189 10.106l-55 90c-1.817 2.974-5.049 4.787-8.533 4.787zm-37.17-90 37.17 60.823 37.169-60.823h-12.169c-5.523 0-10-4.477-10-10 0-28.083 6.42-54.926 19.083-79.784 10.565-20.74 25.387-39.424 43.187-54.529l-18.091-23.999c-47.273 39.295-74.179 96.44-74.179 158.312 0 5.523-4.477 10-10 10z"/><path d="m388.587 166.101c-3.031 0-6.024-1.372-7.99-3.978-27.763-36.8-69.105-58.971-114.597-61.812v19.689c0 3.617-1.954 6.953-5.108 8.722-3.155 1.77-7.021 1.697-10.106-.189l-90-55c-2.973-1.817-4.786-5.049-4.786-8.533s1.813-6.716 4.786-8.533l90-55c3.087-1.887 6.952-1.958 10.106-.189s5.108 5.105 5.108 8.722v20.213c32.438 1.387 63.493 9.541 92.446 24.292 30.432 15.504 57.42 38.147 78.046 65.481 1.598 2.118 2.289 4.784 1.921 7.412-.369 2.628-1.766 5.001-3.885 6.598l-39.93 30.09c-1.802 1.358-3.915 2.015-6.011 2.015zm-132.587-86.101c28.083 0 54.926 6.42 79.784 19.083 20.74 10.565 39.425 25.388 54.53 43.188l23.998-18.084c-39.291-47.278-96.436-74.187-158.312-74.187-5.523 0-10-4.477-10-10v-12.17l-60.823 37.17 60.823 37.169v-12.169c0-5.523 4.477-10 10-10z"/><path d="m386 438.51h-.01c-3.12 0-6.11-1.49-7.99-3.98l-30.09-39.93c-3.31-4.4-2.43-10.68 1.97-14 36.41-27.49 58.94-69.26 61.81-114.6h-19.69c-3.61 0-6.95-1.96-8.72-5.11s-1.7-7.02.19-10.1l55-90c1.8-2.96 5.07-4.79 8.53-4.79s6.73 1.83 8.53 4.79l55 90c.979 1.595 1.47 3.401 1.47 5.21 0 1.684-.427 3.371-1.28 4.89-1.76 3.15-5.11 5.11-8.72 5.11h-20.22c-.69 15.86-3.05 31.65-7.01 46.93-1.15 4.41-5.13 7.49-9.68 7.49-.84 0-1.69-.11-2.52-.32-5.33-1.39-8.55-6.86-7.16-12.2 4.37-16.85 6.59-34.32 6.59-51.9 0-2.63 1.07-5.21 2.93-7.07s4.44-2.93 7.07-2.93h12.17l-37.17-60.82-37.17 60.82h12.17c2.63 0 5.21 1.07 7.07 2.93s2.93 4.44 2.93 7.07c0 13.21-1.47 26.39-4.38 39.17-2.82 12.42-7.02 24.57-12.48 36.1-5.37 11.32-11.97 22.1-19.64 32.05-7.6 9.87-16.27 18.95-25.77 27l18.08 23.99c10.82-9.02 20.75-19.18 29.51-30.2 1.91-2.39 4.77-3.77 7.83-3.77 2.28 0 4.43.75 6.22 2.17 4.32 3.44 5.04 9.74 1.6 14.05-11.9 14.97-25.68 28.41-40.95 39.93-1.74 1.32-3.83 2.02-6.02 2.02zm63.3-76.03c-1.56 0-3.06-.36-4.46-1.06-2.39-1.2-4.17-3.25-5.02-5.79-.84-2.53-.65-5.24.55-7.63 1.7-3.41 5.13-5.53 8.95-5.53 1.56 0 3.06.36 4.46 1.06 2.39 1.19 4.17 3.25 5.02 5.78.84 2.54.65 5.25-.55 7.64-1.7 3.41-5.13 5.53-8.95 5.53z"/></g></svg>