<svg height="512" viewBox="0 0 46 60" width="512" xmlns="http://www.w3.org/2000/svg"><g id="Page-1" fill="none" fill-rule="evenodd"><g id="032---Bean-Roastery" fill="rgb(0,0,0)" fill-rule="nonzero"><path id="Shape" d="m0 43.5c.00263384.2488636.03622525.4964323.1.737.84712838 8.9653045 8.39485059 15.8029335 17.4 15.763h11c8.9618414.0317014 16.4831673-6.7461899 17.381-15.663.0787412-.2720348.1188008-.5537986.119-.837 0-2.064-2.072-3.845-6-5.188v-9.312c.0134973-7.0785885-4.3752579-13.4194524-11.005-15.9 0-.032.005-.064.005-.1v-2.788l3.289-7.4c.2748645-.61869758.2180754-1.33444762-.1509134-1.90206056-.3689888-.56761293-1.0000806-.91002537-1.6770866-.90993944h-14.922c-.6772791-.00023654-1.3086629.34230994-1.6777083.91021178-.3690453.56790184-.4256057 1.28399166-.1502917 1.90278822l3.289 7.399v2.788.106c-6.6298278 2.4761383-11.0181643 8.8168856-11 15.894v9.312c-3.928 1.344-6 3.125-6 5.188zm33.6-4.68-7.6 1.891v-2.643c2.5463435.0928745 5.0845141.3430179 7.6.749zm-7.6 5.47 11.86 2.96c-3.8781972 1.0005316-7.8564212 1.5627157-11.86 1.676zm-2 4.692c-.6666667.012-1.3333333.012-2 0v-11.982c0-.5522847.4477153-1 1-1 .2692895.0036844.5260513.1143447.7136507.3075721.1875995.1932274.290624.4531471.2863493.7224279zm-15.9-1.745 11.9-2.967v4.656c-4.0177812-.1111006-8.009983-.6777249-11.9-1.689zm11.9-6.507-7.649-1.906c2.5314348-.4110466 5.0860774-.6635384 7.649-.756zm-12.306-.861c.089-.027.188-.05.278-.076l10.861 2.707-14.115 3.52c-1.953-.926-2.718-1.853-2.718-2.52 0-.943 1.5-2.39 5.694-3.631zm20.806 18.131h-11c-6.753777.0316035-12.74090232-4.338848-14.769-10.781 1.38305435.7892048 2.8595581 1.401979 4.395 1.824 4.5133802 1.2204452 9.1628477 1.8658872 13.838 1.921.672.024 1.344.036 2.036.036s1.364-.012 2.024-.036c4.6675826-.0567673 9.3096908-.6977531 13.818-1.908 1.5410785-.4217878 3.0232757-1.0348907 4.412-1.825-2.0285238 6.433677-8.0081677 10.7982415-14.754 10.769zm15.5-14.5c0 .646-.773 1.594-2.754 2.536l-14.157-3.536 10.911-2.717c.091.025.189.048.278.074 4.222 1.243 5.722 2.737 5.722 3.643zm-25-30.5v-2h8v2c0 2.209139-1.790861 4-4 4s-4-1.790861-4-4zm11.461-11-3.111 7h-8.7l-3.111-7zm-22.461 27c-.01524531-6.1186224 3.704102-11.6272988 9.385-13.9.8697328 2.3443543 3.1044208 3.9016317 5.6049036 3.9058649 2.5004829.0042331 4.7404309-1.5454688 5.6180964-3.8868649 5.691128 2.2505889 9.4195772 7.7610876 9.392 13.881v8.711c-3.9827298-.9882576-8.0609254-1.5414947-12.163-1.65-.139073-.4413871-.3830345-.8424996-.711-1.169-.5579289-.5739985-1.3255361-.8960613-2.126-.892-1.2891678.0045613-2.4300529.8354321-2.83 2.061-4.1046784.106378-8.1854953.6603229-12.17004669 1.652z"/><path id="Shape" d="m17.5 54c-3.0505802.0062757-5.9769344-1.2079074-8.127-3.372-.39046532-.3907414-1.02375853-.3909653-1.41449999-.0005-.39074145.3904653-.39096531 1.0237585-.00050001 1.4145 2.5245425 2.5405626 5.9604203 3.9657569 9.542 3.958.5522847 0 1-.4477153 1-1s-.4477153-1-1-1z"/><path id="Shape" d="m15 29h16c1.1045695 0 2-.8954305 2-2v-3c0-1.1045695-.8954305-2-2-2h-16c-1.1045695 0-2 .8954305-2 2v3c0 1.1045695.8954305 2 2 2zm0-5h16v3h-16z"/><circle id="Oval" cx="28" cy="32" r="1"/><circle id="Oval" cx="32" cy="32" r="1"/><circle id="Oval" cx="14" cy="32" r="1"/><circle id="Oval" cx="18" cy="32" r="1"/></g></g></svg>