<svg id="Layer_1" enable-background="new 0 0 91 91" height="512" viewBox="0 0 91 91" width="512" xmlns="http://www.w3.org/2000/svg"><g><path d="m32.425 35.878c-5.696 9.675-1.021 17.418.54 19.559-1.909 3.512-3.38 7.373-3.894 11.43-.117.924.538 1.768 1.462 1.885.072.01.143.014.214.014.837 0 1.564-.623 1.672-1.475 1.823-14.4 17.722-26.842 17.882-26.966.737-.57.873-1.63.304-2.367-.57-.737-1.629-.875-2.366-.305-.463.357-7.85 6.134-13.363 14.587-1.471-2.523-3.502-7.925.457-14.65 2.465-4.19 6.304-4.856 10.75-5.628 3.263-.565 6.879-1.193 10.129-3.388 1.043 4.991 2.641 16.166-2.143 22.744-2.386 3.281-6.175 5.027-11.262 5.188-.931.029-1.663.807-1.633 1.738.029.914.778 1.635 1.686 1.635h.054c6.187-.195 10.859-2.41 13.89-6.582 7.232-9.958 2.259-27.461 2.044-28.202-.167-.57-.621-1.013-1.196-1.162-.578-.148-1.188.015-1.611.435-2.994 2.962-6.656 3.598-10.535 4.27-4.829.837-9.823 1.703-13.081 7.24z"/><path d="m30.796 78.617c.215.092.44.135.66.135.656 0 1.28-.385 1.554-1.027.365-.857-.034-1.848-.892-2.213-13.298-5.666-21.191-19.137-19.642-33.524 1.772-16.455 15.551-28.753 31.677-29.123l-4.167 3.356c-.726.585-.84 1.647-.256 2.373.333.414.822.629 1.315.629.372 0 .746-.122 1.058-.373l7.671-6.178c.349-.281.571-.688.619-1.134s-.083-.891-.363-1.239l-6.179-7.67c-.584-.726-1.646-.84-2.373-.256-.726.585-.84 1.647-.255 2.373l3.807 4.726c-18.202-.07-33.919 13.673-35.909 32.154-1.71 15.874 7.001 30.739 21.675 36.991z"/><path d="m57.414 15.323c13.293 5.497 21.5 19.337 19.959 33.658-1.774 16.453-15.559 28.742-31.678 29.119l4.166-3.354c.726-.586.84-1.646.256-2.373-.585-.727-1.646-.84-2.373-.256l-7.672 6.178c-.349.281-.572.688-.62 1.133s.083.891.364 1.24l6.18 7.67c.334.414.822.629 1.314.629.372 0 .746-.123 1.059-.373.726-.586.84-1.648.255-2.373l-3.81-4.729c.045 0 .09.004.135.004 18.14-.002 33.792-13.719 35.779-32.154 1.7-15.8-7.356-31.072-22.024-37.138-.86-.354-1.849.054-2.204.915-.356.861.053 1.847.914 2.204z"/></g></svg>