<svg id="Layer_1" height="512" viewBox="0 0 64 64" width="512" xmlns="http://www.w3.org/2000/svg" data-name="Layer 1"><path d="m22.39 34.22-1.65-4.76a6.09 6.09 0 0 0 -3.89-3.53l-5.69-1.21c-1.63 3.83 0 9.48 4.21 13.77a16.1 16.1 0 0 0 8.91 4.82c0-.18 0-.36 0-.54l2.09-3.51a10.54 10.54 0 0 1 -3.98-5.04z"/><path d="m32.84 24.38 1.4-3.8a4.25 4.25 0 0 0 -.35-3.65l-2.75-3.33h-.05c-2.52 1.77-4.09 5.4-4.09 9.4a14.11 14.11 0 0 0 1.09 5.51l2.59 2.9a3.53 3.53 0 0 0 .21.32l.27-.45 1.56-1.28a8.66 8.66 0 0 1 .12-5.62z"/><path d="m34.28 12.59a5.46 5.46 0 0 0 -1.2.14l2.36 2.86.08.11a6.48 6.48 0 0 1 .58 5.64l-1.4 3.8a6.41 6.41 0 0 0 -.23 3.55 18.11 18.11 0 0 1 5.76-2.2c.31-.06.62-.09.92-.12a14.39 14.39 0 0 0 .4-3.37c0-5.84-3.19-10.41-7.27-10.41z"/><path d="m29.83 33.27-3.21-3.48a16.69 16.69 0 0 1 -1.34-6.62 13.81 13.81 0 0 0 -7.46-2.54 7.23 7.23 0 0 0 -5.3 2.05 1.55 1.55 0 0 0 -.24.28l5.13 1.04.16.05a8.56 8.56 0 0 1 5.58 5l1.66 4.77a8 8 0 0 0 2.69 3.61l2.41-4a.5.5 0 0 1 -.08-.16z"/><path d="m29.32 45.86a10.43 10.43 0 0 1 4.74-5.63l4.38-2.3a5.81 5.81 0 0 0 2.83-4.24l.29-5.8a10.71 10.71 0 0 0 -2.48.21 14.55 14.55 0 0 0 -4.95 2 31.21 31.21 0 0 0 -2.51 2.13l-5.62 10.01a7.88 7.88 0 0 0 2 6.44 5.46 5.46 0 0 0 1.17.92l.12-3.3a1.12 1.12 0 0 1 .03-.44z"/><path d="m46.48 29.93a6.71 6.71 0 0 0 -2.93-1.73l-.29 5.72s0 .1 0 .15a8.21 8.21 0 0 1 -4 6l-4.38 2.3a8.11 8.11 0 0 0 -3.64 4.22l-.15 3.81a8.43 8.43 0 0 0 2.17.27c3.45 0 7.33-1.84 10.39-4.93 5.08-5.12 6.35-12.24 2.83-15.81z"/><path d="m50.43 20.7a9.21 9.21 0 0 1 .48-4.32l.91-2.44a3.24 3.24 0 0 0 .09-1.9l-.8-1.94a4.48 4.48 0 0 0 -1.19 1.05 8 8 0 0 0 -1.6 3.85c-.43 2.91.55 5.46 2.28 6.27v-.09a1.48 1.48 0 0 1 -.17-.48z"/><path d="m55.81 12a3.58 3.58 0 0 0 -2.56-2.35l.43 1a.75.75 0 0 1 0 .16 7.11 7.11 0 0 1 -.14 4.4l-.91 2.43a5.37 5.37 0 0 0 -.26 2.36l.63 1.32a4.37 4.37 0 0 0 1.63-1.32 8 8 0 0 0 1.6-3.86 8 8 0 0 0 -.42-4.14z"/><path d="m17.08 13.83a8.19 8.19 0 0 1 .54-4l.95-2.25a2.92 2.92 0 0 0 .11-1.78l-.91-2.17a4.73 4.73 0 0 0 -1 .93 8 8 0 0 0 -1.68 3.82 8.09 8.09 0 0 0 .35 4.17 3.76 3.76 0 0 0 2 2.22l-.2-.45a1.66 1.66 0 0 1 -.16-.49z"/><path d="m22.6 5.49a3.58 3.58 0 0 0 -2.6-2.41h-.16l.63 1.5.06.15a6.23 6.23 0 0 1 -.21 4.11l-.94 2.25a4.58 4.58 0 0 0 -.38 2.1l.65 1.49a4.29 4.29 0 0 0 1.62-1.23 8 8 0 0 0 1.73-3.79 8.09 8.09 0 0 0 -.4-4.17z"/><path d="m22.62 57.35.95-2.41a3.36 3.36 0 0 0 .11-1.94l-.95-2.41a5.22 5.22 0 0 0 -1 .9 8 8 0 0 0 -1.68 3.82 8.09 8.09 0 0 0 .35 4.17 3.94 3.94 0 0 0 1.67 2.06 9.3 9.3 0 0 1 .55-4.19z"/><path d="m27.6 52.49a3.58 3.58 0 0 0 -2.6-2.41h-.19l.66 1.68.06.16a7.14 7.14 0 0 1 -.21 4.41l-.94 2.41a5.23 5.23 0 0 0 -.38 2.26l.33.82a4.1 4.1 0 0 0 1.9-1.33 8 8 0 0 0 1.77-3.83 8.09 8.09 0 0 0 -.4-4.17z"/><path d="m12.85 42.9c-.68-2.36-2.15-4.09-3.73-4.61a7.83 7.83 0 0 1 1.06 4.41l-.12 3.06a6.42 6.42 0 0 0 .39 2.49l1 1.12c1.55-1.08 2.19-3.69 1.4-6.47z"/><path d="m8.19 42.5a3.51 3.51 0 0 0 -.48-2l-1.48-1.65c-1.34 1.15-1.82 3.65-1.08 6.25a6.8 6.8 0 0 0 3.5 4.53 11.16 11.16 0 0 1 -.59-4.07z"/><path d="m50.08 52.83a8.19 8.19 0 0 1 .54-4l1-2.25a2.92 2.92 0 0 0 .11-1.78l-.91-2.17a4.73 4.73 0 0 0 -1 .93 8 8 0 0 0 -1.68 3.82 8.09 8.09 0 0 0 .35 4.17 3.76 3.76 0 0 0 2 2.22l-.2-.45a1.66 1.66 0 0 1 -.21-.49z"/><path d="m55.6 44.49a3.58 3.58 0 0 0 -2.6-2.41h-.16l.63 1.5.06.15a6.23 6.23 0 0 1 -.21 4.11l-.94 2.25a4.58 4.58 0 0 0 -.38 2.1l.65 1.49a4.29 4.29 0 0 0 1.62-1.23 8 8 0 0 0 1.73-3.79 8.09 8.09 0 0 0 -.4-4.17z"/></svg>