<?xml version="1.0" encoding="iso-8859-1"?>
<!-- Generator: Adobe Illustrator 19.0.0, SVG Export Plug-In . SVG Version: 6.00 Build 0)  -->
<svg version="1.1" id="Capa_1" xmlns="http://www.w3.org/2000/svg" xmlns:xlink="http://www.w3.org/1999/xlink" x="0px" y="0px"
	 viewBox="0 0 512 512" style="enable-background:new 0 0 512 512;" xml:space="preserve">
<g>
	<g>
		<path d="M437.02,74.98C388.667,26.629,324.38,0,256,0S123.333,26.629,74.98,74.98C26.629,123.333,0,187.62,0,256
			s26.629,132.667,74.98,181.02C123.333,485.371,187.62,512,256,512s132.667-26.629,181.02-74.98
			C485.371,388.667,512,324.38,512,256S485.371,123.333,437.02,74.98z M256,482c-60.367,0-117.12-23.508-159.806-66.194
			C53.508,373.12,30,316.367,30,256c0-55.339,19.768-107.633,55.943-148.845l75.01,75.01
			c-20.554,29.073-23.488,56.451-21.663,75.832l-18.074-23.508l-2.25,40.326c-0.147,2.646-0.223,5.257-0.223,7.76
			c0,62.692,42.232,115.707,99.741,132.087c-18.693-12.277-31.07-33.416-31.07-57.403c0-19.459,8.309-38.08,22.796-51.087
			l12.302-11.045l9.8,13.314c1.341,1.822,2.349,2.618,2.849,2.938c1.032-0.669,3.211-2.959,4.598-7.367
			c2.441-7.759,0.821-16.562-4.334-23.547l-20.765-28.139l34.699,4.348c1.997,0.25,20.034,2.84,38.248,16.528
			c16.92,12.716,37.09,37.622,37.09,84.058c0,23.987-12.377,45.126-31.071,57.403c24.018-6.841,45.367-20.076,62.092-37.732
			l49.128,49.128C363.633,462.232,311.339,482,256,482z M426.057,404.844l-52.047-52.047c12.286-20.56,19.355-44.581,19.355-70.223
			c0-11.915-1.538-23.766-4.57-35.224l-8.365-31.832l-18.491,27.165c-0.054,0.077-2.871,4.068-8.498,9.649
			c-0.496-14.664-2.265-32.911-6.934-51.902c-14.737-59.954-50.993-98.057-104.849-110.189l-24.324-5.479l6.555,24.056
			c12.977,47.626,5.686,77.778-5.307,88.551L107.155,85.942C148.368,49.768,200.661,30,256,30
			c60.367,0,117.12,23.508,159.806,66.194C458.492,138.88,482,195.633,482,256C482,311.339,462.232,363.633,426.057,404.844z"/>
	</g>
</g>
<g>
</g>
<g>
</g>
<g>
</g>
<g>
</g>
<g>
</g>
<g>
</g>
<g>
</g>
<g>
</g>
<g>
</g>
<g>
</g>
<g>
</g>
<g>
</g>
<g>
</g>
<g>
</g>
<g>
</g>
</svg>
