<?xml version="1.0" encoding="UTF-8"?>
<svg xmlns="http://www.w3.org/2000/svg" id="Layer_3" data-name="Layer 3" viewBox="0 0 64 64" width="512" height="512"><path d="M63,26V10a1,1,0,0,0-.529-.883l-15-8a1.007,1.007,0,0,0-.942,0l-15,8A1,1,0,0,0,31,10V20.333L17.471,13.117a1.007,1.007,0,0,0-.942,0l-15,8A1,1,0,0,0,1,22V54a1,1,0,0,0,.529.883l15,8a1.007,1.007,0,0,0,.942,0L32,55.134l14.529,7.749a1.007,1.007,0,0,0,.942,0l15-8A1,1,0,0,0,63,54V38a1,1,0,0,0-.529-.883L52.876,32l9.595-5.117A1,1,0,0,0,63,26ZM47,3.134,59.875,10,47,16.866,34.125,10ZM3,23.667,16,30.6V44.333L3,37.4ZM31,37.4,18,44.333V30.6l13-6.934ZM18,46.6l13-6.934V53.4L18,60.333ZM33,27.667,41.124,32,33,36.333ZM33,25.4V11.667L46,18.6V32.333ZM17,15.134,29.875,22,17,28.866,4.125,22ZM3,39.667,16,46.6V60.333L3,53.4Zm30,0L46,46.6V60.333L33,53.4ZM48,60.333V46.6l13-6.934V53.4ZM59.875,38,47,44.866,34.125,38l9.125-4.866,3.279,1.749a1.007,1.007,0,0,0,.942,0l3.279-1.749ZM48,32.333V18.6l13-6.934V25.4Z"/></svg>
