<?xml version="1.0" encoding="UTF-8" standalone="no"?>
<svg
        xmlns:dc="http://purl.org/dc/elements/1.1/"
        xmlns:cc="http://creativecommons.org/ns#"
        xmlns:rdf="http://www.w3.org/1999/02/22-rdf-syntax-ns#"
        xmlns:svg="http://www.w3.org/2000/svg"
        xmlns="http://www.w3.org/2000/svg"
        xmlns:sodipodi="http://sodipodi.sourceforge.net/DTD/sodipodi-0.dtd"
        xmlns:inkscape="http://www.inkscape.org/namespaces/inkscape"
        width="249.931"
        height="230.201"
        viewBox="0 0 249.931 230.201"
        version="1.1"
        xml:space="preserve"
        style="clip-rule:evenodd;fill-rule:evenodd;stroke-linejoin:round;stroke-miterlimit:2"
        id="svg3698"
        sodipodi:docname="PROBAT-Logo-Zuschnitt.svg"
        inkscape:version="0.92.1 r15371"><metadata
     id="metadata3704"><rdf:RDF><cc:Work
         rdf:about=""><dc:format>image/svg+xml</dc:format><dc:type
        rdf:resource="http://purl.org/dc/dcmitype/StillImage"/><dc:title></dc:title></cc:Work></rdf:RDF></metadata>
    <defs
            id="defs3702"/>
    <sodipodi:namedview
            pagecolor="#ffffff"
            bordercolor="#666666"
            borderopacity="1"
            objecttolerance="10"
            gridtolerance="10"
            guidetolerance="10"
            inkscape:pageopacity="0"
            inkscape:pageshadow="2"
            inkscape:window-width="1920"
            inkscape:window-height="1017"
            id="namedview3700"
            showgrid="false"
            inkscape:zoom="1.696"
            inkscape:cx="125.034"
            inkscape:cy="103.699"
            inkscape:window-x="-8"
            inkscape:window-y="-8"
            inkscape:window-maximized="1"
            inkscape:current-layer="svg3698"/>
    <path
            inkscape:connector-curvature="0"
            id="path3682"
            style="fill:#4f5861;fill-rule:nonzero"
            d="m 228.509,190.738 h -26.941 l 8.569,15.785 H 39.795 l 8.569,-15.785 H 21.423 L 0,230.201 H 249.931 Z M 100.514,94.293 c -9.761,0.708 -19.685,2.813 -29.083,4.325 L 124.966,0 178.501,98.618 c -9.398,-1.512 -19.323,-3.617 -29.083,-4.325 L 124.966,49.63 Z"/>
    <path
            inkscape:connector-curvature="0"
            id="path3684"
            style="fill:#4f5861;fill-rule:nonzero"
            d="m 214.415,114.79 v 14.123 c 2.306,0.649 7.263,2.384 9.208,3.288 v 50.645 h 13.146 v -46.432 l 9.874,4.091 v -13.749 c 0,0 -12.854,-5.561 -32.228,-11.966 z"/>
    <path
            inkscape:connector-curvature="0"
            id="path3686"
            style="fill:#4f5861;fill-rule:nonzero"
            d="m 191.724,144.369 2.241,-21.42 1.786,0.638 2.879,22.426 z m -8.466,-36.355 -8.306,74.812 h 12.826 c 0,0 2.625,-26.404 2.752,-26.383 2.627,0.461 9.42,2.469 9.42,2.469 l 3.613,23.914 h 12.826 l -10.617,-69.311 c -1.825,-1.09 -11.253,-3.666 -22.514,-5.501 z"/>
    <path
            inkscape:connector-curvature="0"
            id="path3688"
            style="fill:#4f5861;fill-rule:nonzero"
            d="m 114.114,118.718 v 47.425 c 0,3.141 -2.779,3.572 -5.92,3.572 -3.138,0 -5.919,-0.431 -5.919,-3.572 v -47.425 c 0,-3.141 2.781,-3.763 5.919,-3.763 3.141,0 5.92,0.622 5.92,3.763 z m 3.946,-15.456 c -5.536,-0.38 -14.634,-0.329 -19.731,0 -5.098,0.329 -9.208,4.78 -9.208,9.866 v 58.356 c 0,6.388 3.963,11.362 11.879,11.362 h 14.414 c 9.049,0 11.854,-4.893 11.854,-11.281 v -58.437 c 0,-5.086 -3.701,-9.489 -9.208,-9.866 z"/>
    <path
            inkscape:connector-curvature="0"
            id="path3690"
            style="fill:#4f5861;fill-rule:nonzero"
            d="m 25.651,148.315 c 0.082,1.151 -0.59,2.153 -1.48,2.742 -0.617,0.41 -0.932,0.944 -7.728,3.486 v -19.711 c 2.178,-1 3.436,-1.481 5.427,-2.072 3.726,-1.107 3.781,1.949 3.781,2.303 z m 3.946,-31.241 c -0.102,0 -0.202,0.007 -0.303,0.01 -0.824,0.107 -1.706,0.313 -2.656,0.647 -9.234,3.252 -13.922,4.961 -23.349,8.551 -0.035,-0.025 0,56.564 0,56.564 h 13.154 v -14.47 c 0,0 11.84,-5.525 16.41,-7.925 3.839,-1.733 5.952,-4.737 5.952,-8.518 v -25.651 c 0,-5.086 -4.123,-9.208 -9.208,-9.208 z"/>
    <path
            inkscape:connector-curvature="0"
            id="path3692"
            style="fill:#4f5861;fill-rule:nonzero"
            d="m 68.731,124.913 c 0,0 -10e-4,10.861 0,10.906 0.052,1.521 -0.945,2.682 -2.261,3.186 0,0 -1.829,0.75 -7.933,2.076 v -19.074 c 4.131,-1.028 6.505,-1.645 6.906,-1.645 1.816,0 3.288,1.418 3.288,3.68 z m 3.947,-18.034 c -0.097,0 -0.193,0.005 -0.289,0.007 -0.741,-0.035 -1.488,-0.006 -2.228,0.092 -6.779,0.894 -13.415,2.498 -24.779,6.15 v 69.697 h 13.155 v -29.216 c 0,0 3.759,-1.387 6.281,-1.676 0.204,-0.024 0.4,-0.021 0.592,0.001 0.01,0 0.022,-0.001 0.033,-0.001 1.816,0 3.288,1.472 3.288,3.288 v 27.604 l 13.155,0.001 v -29.907 c 0,-5.05 -3.618,-6.248 -3.618,-6.248 2.686,-1.288 3.618,-3.65 3.618,-6.248 v -23.741 c -0.003,-0.057 -0.008,-0.112 -0.011,-0.169 0.006,-0.141 0.011,-0.283 0.011,-0.426 0,-5.085 -4.123,-9.208 -9.208,-9.208 z"/>
    <path
            inkscape:connector-curvature="0"
            id="path3694"
            style="fill:#4f5861;fill-rule:nonzero"
            d="m 157.852,151.45 v 15.61 c 0,1.453 -1.178,2.631 -2.631,2.631 h -6.577 v -22.362 c 3.085,0.138 5.899,0.328 5.919,0.328 1.817,0 3.474,1.552 3.289,3.793 z m -9.208,-35.034 c 4.796,0 5.568,0.329 5.919,0.329 1.686,0 3.289,1.531 3.289,3.288 v 12.289 c 0.001,0.061 -0.001,0.119 -0.002,0.177 0.001,0.011 0.002,0.021 0.002,0.031 0,0.015 -0.002,0.029 -0.002,0.044 -0.002,0.039 -0.004,0.075 -0.006,0.112 -0.002,0.043 -0.008,0.085 -0.008,0.127 0.016,1.1 -1.546,2.389 -2.615,2.348 -0.584,-0.023 -6.577,-0.329 -6.577,-0.329 z m 13.584,-11.17 c -5.198,-0.792 -14.845,-1.984 -26.739,-1.984 v 79.564 h 25.777 c 7.042,0 9.531,-4.955 9.74,-8.382 0,0 -0.003,-14.106 0,-22.102 0.002,-6.141 -3.024,-7.981 -4.851,-9.31 -0.55,-0.199 -1.128,-0.307 -1.726,-0.307 v -0.008 c 3.339,-0.072 6.577,-3.086 6.577,-8.529 V 115.43 c 0,-4.942 -3.58,-9.392 -8.778,-10.184 z"/></svg>